<?xml version="1.0" encoding="UTF-8" standalone="no"?>
<!-- Created with Inkscape (http://www.inkscape.org/) -->

<svg
   width="2048"
   height="2048"
   viewBox="0 0 541.86665 541.86666"
   version="1.1"
   id="svg1"
   xml:space="preserve"
   inkscape:version="1.4.2 (f4327f4, 2025-05-13)"
   sodipodi:docname="hauth_logo.svg"
   xmlns:inkscape="http://www.inkscape.org/namespaces/inkscape"
   xmlns:sodipodi="http://sodipodi.sourceforge.net/DTD/sodipodi-0.dtd"
   xmlns:xlink="http://www.w3.org/1999/xlink"
   xmlns="http://www.w3.org/2000/svg"
   xmlns:svg="http://www.w3.org/2000/svg"
   xmlns:rdf="http://www.w3.org/1999/02/22-rdf-syntax-ns#"
   xmlns:cc="http://creativecommons.org/ns#"
   xmlns:dc="http://purl.org/dc/elements/1.1/"><defs
     id="defs1"><linearGradient
       id="linearGradient1"
       inkscape:collect="always"><stop
         style="stop-color:#b31d1d;stop-opacity:1;"
         offset="0"
         id="stop1" /><stop
         style="stop-color:#2a0a3d;stop-opacity:1;"
         offset="0.6467818"
         id="stop2" /></linearGradient><linearGradient
       id="linearGradient8"
       inkscape:collect="always"><stop
         style="stop-color:#b31d1d;stop-opacity:1;"
         offset="0.18138041"
         id="stop8" /><stop
         style="stop-color:#2a0a3d;stop-opacity:1;"
         offset="0.83788121"
         id="stop9" /></linearGradient><linearGradient
       inkscape:collect="always"
       xlink:href="#linearGradient8"
       id="linearGradient9"
       x1="386.37006"
       y1="516.53894"
       x2="160.07346"
       y2="31.244324"
       gradientUnits="userSpaceOnUse" /><linearGradient
       inkscape:collect="always"
       xlink:href="#linearGradient1"
       id="linearGradient2"
       x1="496.84042"
       y1="207.55466"
       x2="439.21106"
       y2="83.968056"
       gradientUnits="userSpaceOnUse" /></defs><sodipodi:namedview
     id="base"
     pagecolor="#ffffff"
     bordercolor="#000000"
     borderopacity="0.3"
     inkscape:pageopacity="0.0"
     inkscape:pageshadow="2"
     inkscape:zoom="0.35355339"
     inkscape:cx="1067.7312"
     inkscape:cy="957.42258"
     inkscape:document-units="mm"
     inkscape:showpageshadow="0"
     inkscape:pagecheckerboard="0"
     inkscape:deskcolor="#505050"
     showguides="true"
     inkscape:window-width="2560"
     inkscape:window-height="1369"
     inkscape:window-x="1912"
     inkscape:window-y="-8"
     inkscape:window-maximized="1"
     inkscape:current-layer="layer1" /><metadata
     id="metadata1"><rdf:RDF><cc:Work
         rdf:about=""><dc:format>image/svg+xml</dc:format><dc:type
           rdf:resource="http://purl.org/dc/dcmitype/StillImage" /></cc:Work></rdf:RDF></metadata><g
     inkscape:groupmode="layer"
     id="layer1"
     inkscape:label="bg"
     style="display:none"><rect
       style="fill:#ffffff;fill-opacity:1;fill-rule:evenodd;stroke-width:23;stroke-linecap:round;stroke-linejoin:round"
       id="rect2"
       width="541.86664"
       height="541.86664"
       x="0"
       y="0"
       rx="0"
       ry="0" /></g><g
     id="g8"
     transform="translate(-2.2883533,-2.3997025)"><path
       id="path1"
       style="display:inline;opacity:1;fill:url(#linearGradient2);fill-opacity:1;stroke-width:0.264583"
       d="m 457.00518,56.901953 c -21.37492,0 -43.94822,22.683315 -43.94822,47.190917 v 23.79596 c 0,0.45946 -0.58867,0.54571 -1.07487,0.54571 h -4.69222 c -4.12651,0 -7.44554,3.72047 -7.44554,7.93336 v 90.25496 c 0,4.45637 3.65442,7.99796 6.86883,7.99796 h 61.31254 61.31253 c 3.21441,0 6.86883,-3.54159 6.86883,-7.99796 V 136.3679 c 0,-4.21289 -3.31903,-7.93336 -7.44554,-7.93336 h -4.69222 c -0.4862,0 -1.07487,-0.0863 -1.07487,-0.54571 v -23.79596 c 0,-24.507602 -22.57331,-47.190917 -43.94822,-47.190917 H 468.0257 Z m 11.02052,22.727812 c 19.36894,0 32.39543,12.302885 32.39543,31.758265 v 16.51631 c 0,0.44303 -0.59917,0.52348 -1.08158,0.52348 H 468.0257 436.71184 c -0.48241,0 -1.08158,-0.0804 -1.08158,-0.52348 v -16.51631 c 0,-19.45538 13.0265,-31.758265 32.39544,-31.758265 z m -4.24471,76.741055 h 4.24471 4.2447 c 6.24433,0 11.06217,6.61669 11.19001,14.53451 0.0661,4.0969 -1.54315,7.66068 -4.78213,10.44226 v 26.39115 c 0,1.66468 -1.51776,3.23856 -3.1688,3.23856 h -7.48378 -7.48379 c -1.65104,0 -3.16879,-1.57388 -3.16879,-3.23856 v -26.39115 c -3.23898,-2.78158 -4.91283,-6.37811 -4.78214,-10.44226 0.24089,-7.49126 4.97772,-14.53451 11.19001,-14.53451 z"
       sodipodi:nodetypes="cssssssscssssssscccsssscssssscsscsscsscss" /><path
       id="path6"
       style="display:inline;opacity:1;fill:url(#linearGradient9);stroke-width:0.264583"
       d="M 226.0287 58.03455 C 156.05586 62.90959 110.6953 107.4179 94.562308 181.87505 L 90.826618 207.85486 L 66.9149 306.04835 L 123.42101 306.04835 C 123.84977 306.04635 124.05211 306.28251 124.02873 306.75632 L 124.02873 402.98507 L 250.96568 402.98507 C 256.10301 402.74254 260.182 399.72188 263.20266 393.92309 L 285.36151 349.40695 L 318.92846 479.25225 C 322.50296 493.07931 336.96048 493.45518 339.41455 479.25225 L 370.82193 297.48247 L 387.55683 394.35304 C 389.44523 398.68614 393.20452 401.2107 398.83469 401.92674 L 527.09146 401.92674 C 545.42319 401.92674 545.73541 378.08116 527.05839 378.08116 L 408.77775 378.08116 L 382.7256 219.33943 C 380.36593 204.96136 362.05061 204.07679 359.5265 219.33943 L 327.03339 415.81736 L 301.2484 313.58536 C 297.90723 300.33826 285.44352 296.17796 278.564 309.937 L 243.67207 379.72086 L 147.85931 379.72086 L 147.83606 361.15248 C 168.35469 358.22406 188.07268 348.83176 202.87766 331.48142 C 206.79431 326.8914 199.94366 313.83129 188.12714 319.31059 C 176.84928 325.08733 161.40423 329.14428 147.84433 327.31424 L 147.84433 284.51788 C 147.86513 284.12557 147.65019 283.91059 147.1994 283.87296 L 96.415941 283.87296 L 114.53422 210.96733 C 121.04683 139.60829 155.13945 89.997996 226.0287 80.127258 C 239.46413 78.256486 235.52576 57.372885 226.0287 58.03455 z M 277.25038 95.977453 A 12.270052 12.270052 0 0 0 264.98033 108.24751 A 12.270052 12.270052 0 0 0 277.25038 120.51756 A 12.270052 12.270052 0 0 0 289.52043 108.24751 A 12.270052 12.270052 0 0 0 277.25038 95.977453 z M 54.813829 109.77248 A 12.270052 12.270052 0 0 0 42.543777 122.04253 A 12.270052 12.270052 0 0 0 54.813829 134.31258 A 12.270052 12.270052 0 0 0 67.083881 122.04253 A 12.270052 12.270052 0 0 0 54.813829 109.77248 z M 186.78097 197.21779 C 181.38229 197.43058 176.3935 198.48479 172.49605 200.41862 C 164.32955 204.47068 170.91106 215.66346 178.48277 213.88912 C 185.20237 212.31445 189.67696 211.95575 194.89985 212.62615 C 198.97106 213.5967 201.27389 214.35306 210.00694 217.02278 C 217.08769 219.18738 222.9557 207.55048 214.02943 202.99108 C 205.91424 198.84596 195.77876 196.86313 186.78097 197.21779 z M 17.760277 249.03891 A 12.270052 12.270052 0 0 0 5.490225 261.30896 A 12.270052 12.270052 0 0 0 17.760277 273.57902 A 12.270052 12.270052 0 0 0 30.030329 261.30896 A 12.270052 12.270052 0 0 0 17.760277 249.03891 z M 66.188846 402.32465 A 12.270052 12.270052 0 0 0 53.918794 414.5947 A 12.270052 12.270052 0 0 0 66.188846 426.86475 A 12.270052 12.270052 0 0 0 78.458898 414.5947 A 12.270052 12.270052 0 0 0 66.188846 402.32465 z " /></g></svg>
