<?xml version="1.0" encoding="UTF-8" standalone="no"?>
<svg
   width="1024"
   height="1024"
   viewBox="0 0 270.9333 270.9333"
   version="1.1"
   id="svg1"
   sodipodi:docname="intro4.svg"
   inkscape:version="1.4.2 (f4327f4, 2025-05-13)"
   xml:space="preserve"
   xmlns:inkscape="http://www.inkscape.org/namespaces/inkscape"
   xmlns:sodipodi="http://sodipodi.sourceforge.net/DTD/sodipodi-0.dtd"
   xmlns:xlink="http://www.w3.org/1999/xlink"
   xmlns="http://www.w3.org/2000/svg"
   xmlns:svg="http://www.w3.org/2000/svg"
   xmlns:rdf="http://www.w3.org/1999/02/22-rdf-syntax-ns#"
   xmlns:cc="http://creativecommons.org/ns#"
   xmlns:dc="http://purl.org/dc/elements/1.1/"><defs
     id="defs1"><linearGradient
       id="linearGradient1"
       inkscape:collect="always"><stop
         style="stop-color:#2a0a3d;stop-opacity:1;"
         offset="0"
         id="stop1" /><stop
         style="stop-color:#b31d1d;stop-opacity:1;"
         offset="1"
         id="stop2" /></linearGradient><linearGradient
       inkscape:collect="always"
       xlink:href="#linearGradient1"
       id="linearGradient2"
       x1="7.6831765"
       y1="5.1126909"
       x2="18.81665"
       y2="19.88731"
       gradientUnits="userSpaceOnUse" /><style
       id="style1">.cls-1{fill:none;stroke:#000000;stroke-linecap:round;stroke-linejoin:round;stroke-width:1.5px;}</style></defs><sodipodi:namedview
     id="namedview1"
     pagecolor="#505050"
     bordercolor="#eeeeee"
     borderopacity="1"
     inkscape:showpageshadow="0"
     inkscape:pageopacity="0"
     inkscape:pagecheckerboard="0"
     inkscape:deskcolor="#505050"
     inkscape:zoom="0.515746"
     inkscape:cx="954.92743"
     inkscape:cy="495.3989"
     inkscape:window-width="2560"
     inkscape:window-height="1369"
     inkscape:window-x="1912"
     inkscape:window-y="-8"
     inkscape:window-maximized="1"
     inkscape:current-layer="svg1" /><!-- Uploaded to: SVG Repo, www.svgrepo.com, Generator: SVG Repo Mixer Tools --><title
     id="title1">ic_fluent_phone_link_setup_24_regular</title><desc
     id="desc1">Created with Sketch.</desc><g
     id="ðŸ”-Product-Icons"
     stroke="none"
     stroke-width="1"
     fill="none"
     fill-rule="evenodd"
     transform="matrix(7.9416471,0,0,7.9416471,30.240529,36.196061)"><g
       id="ic_fluent_phone_link_setup_24_regular"
       fill="#212121"
       fill-rule="nonzero"><path
         d="m 17.5,12 c 0.293074,0 0.580607,0.02454 0.860787,0.07175 l 0.173329,0.716051 c 0.258971,1.073782 1.339381,1.734317 2.413163,1.475346 l 0.09778,-0.02622 0.601104,-0.178893 c 0.362565,0.466993 0.652956,0.996536 0.85366,1.570506 l -0.447234,0.430266 c -0.754058,0.72555 -0.81564,1.900065 -0.168848,2.698461 l 0.141342,0.156948 0.47474,0.457247 c -0.200561,0.573561 -0.490681,1.102758 -0.852884,1.569507 l -0.60188,-0.177894 c -1.059301,-0.312975 -2.171752,0.292042 -2.484727,1.351344 l -0.02622,0.09778 -0.173329,0.716051 C 18.080607,22.975458 17.793074,23 17.5,23 17.20661,23 16.918771,22.9754 16.638305,22.9281 L 16.465884,22.212202 C 16.206913,21.13842 15.126503,20.477885 14.052721,20.736856 l -0.09778,0.02622 -0.60188,0.177894 c -0.362203,-0.466749 -0.652323,-0.995946 -0.852884,-1.569507 l 0.447234,-0.430266 c 0.754058,-0.72555 0.81564,-1.900065 0.168848,-2.698461 l -0.141342,-0.156948 -0.47474,-0.457247 c 0.200561,-0.573561 0.490681,-1.102758 0.852884,-1.569507 l 0.60188,0.177894 c 1.059301,0.312975 2.171752,-0.292042 2.484727,-1.351344 l 0.02622,-0.09778 0.172421,-0.715898 C 16.918771,12.024595 17.20661,12 17.5,12 Z M 13.75,2 C 14.992641,2 16,3.0073593 16,4.25 l 1.63e-4,6.923893 c -0.527859,0.124675 -1.030852,0.313708 -1.500241,0.558358 L 14.5,4.25 C 14.5,3.8357864 14.164214,3.5 13.75,3.5 H 6.25 C 5.8357864,3.5 5.5,3.8357864 5.5,4.25 v 15.5 c 0,0.414214 0.3357864,0.75 0.75,0.75 l 5.48277,0.0011 c 0.287278,0.550941 0.651187,1.055568 1.077589,1.499745 L 6.25,22 C 5.0073593,22 4,20.992641 4,19.75 V 4.25 C 4,3.0073593 5.0073593,2 6.25,2 Z m -5.001129,15.503764 2.251128,-0.0048 c 0,0.517212 0.06018,1.019369 0.173894,1.500838 l -2.422764,0.0039 C 8.336916,19.004386 8.0006244,18.669106 7.9999991,18.254893 7.9993773,17.840679 8.3346579,17.504388 8.748871,17.503764 Z M 17.5,16 c -0.800632,0 -1.449672,0.671573 -1.449672,1.5 0,0.828427 0.64904,1.5 1.449672,1.5 0.800632,0 1.449672,-0.671573 1.449672,-1.5 0,-0.828427 -0.64904,-1.5 -1.449672,-1.5 z"
         id="ðŸŽ¨Color"
         style="fill:url(#linearGradient2)" /></g></g><metadata
     id="metadata1"><rdf:RDF><cc:Work
         rdf:about=""><dc:title>ic_fluent_phone_link_setup_24_regular</dc:title></cc:Work></rdf:RDF></metadata></svg>
