<?xml version="1.0" encoding="UTF-8" standalone="no"?>
<!-- Created with Inkscape (http://www.inkscape.org/) -->

<svg
   width="1024"
   height="1024"
   viewBox="0 0 270.93333 270.93333"
   version="1.1"
   id="svg1"
   xml:space="preserve"
   inkscape:version="1.4.2 (f4327f4, 2025-05-13)"
   sodipodi:docname="intro3.svg"
   xmlns:inkscape="http://www.inkscape.org/namespaces/inkscape"
   xmlns:sodipodi="http://sodipodi.sourceforge.net/DTD/sodipodi-0.dtd"
   xmlns:xlink="http://www.w3.org/1999/xlink"
   xmlns="http://www.w3.org/2000/svg"
   xmlns:svg="http://www.w3.org/2000/svg"><sodipodi:namedview
     id="namedview1"
     pagecolor="#505050"
     bordercolor="#eeeeee"
     borderopacity="1"
     inkscape:showpageshadow="0"
     inkscape:pageopacity="0"
     inkscape:pagecheckerboard="0"
     inkscape:deskcolor="#505050"
     inkscape:document-units="px"
     showguides="true"
     inkscape:zoom="0.51981271"
     inkscape:cx="243.35688"
     inkscape:cy="587.71168"
     inkscape:window-width="2560"
     inkscape:window-height="1369"
     inkscape:window-x="1912"
     inkscape:window-y="-8"
     inkscape:window-maximized="1"
     inkscape:current-layer="svg1" /><defs
     id="defs1"><linearGradient
       id="linearGradient24"
       inkscape:collect="always"><stop
         style="stop-color:#2a0a3d;stop-opacity:1;"
         offset="0.34653464"
         id="stop24" /><stop
         style="stop-color:#b31d1d;stop-opacity:1;"
         offset="1"
         id="stop25" /></linearGradient><style
       id="style1">.cls-1{fill:none;stroke:#000000;stroke-linecap:round;stroke-linejoin:round;stroke-width:1.5px;}</style><linearGradient
       inkscape:collect="always"
       xlink:href="#linearGradient24"
       id="linearGradient25"
       x1="73.68708"
       y1="48.786171"
       x2="202.59271"
       y2="219.84973"
       gradientUnits="userSpaceOnUse" /></defs><path
     id="path2"
     style="display:inline;opacity:1;fill:url(#linearGradient25);stroke-width:0.264583;stroke:none"
     d="M 165.94284 56.956729 C 159.93018 56.956729 152.10906 64.539536 152.10906 70.385884 L 152.10906 197.23395 C 152.10906 204.01169 158.69303 211.67907 165.94284 211.67907 L 198.67314 211.67907 L 231.40344 211.67907 C 238.65325 211.67907 245.23722 204.01169 245.23722 197.23395 L 245.23722 70.385884 C 245.23722 64.539536 237.4161 56.956729 231.40344 56.956729 L 198.67314 56.956729 L 165.94284 56.956729 z M 188.72078 65.564989 L 198.67314 65.564989 L 208.62551 65.564989 C 210.4426 65.564989 210.39012 69.064517 208.62551 69.064517 L 198.67314 69.064517 L 188.72078 69.064517 C 186.95617 69.064517 186.90369 65.564989 188.72078 65.564989 z M 52.952323 74.917907 C 51.470346 74.911841 47.953809 75.63127 47.527848 78.596752 L 45.332633 93.87799 L 68.496593 93.87799 L 91.660037 93.87799 L 89.465339 78.596752 C 89.039378 75.63127 85.522324 74.911841 84.040347 74.917907 L 68.496593 74.981469 L 52.952323 74.917907 z M 160.36437 76.747252 L 198.67314 76.747252 L 236.98191 76.747252 L 236.98191 188.16836 L 198.67314 188.16836 L 160.36437 188.16836 L 160.36437 76.747252 z M 198.31141 94.876378 A 2.6783981 2.8894265 0 0 0 197.32129 95.129593 A 2.6783981 2.8894265 0 0 0 195.74516 97.763024 L 195.74516 125.6838 L 182.34029 112.93109 A 2.6781303 2.8891376 0 0 0 178.56016 113.18689 A 2.6781303 2.8891376 0 0 0 178.79735 117.26468 L 194.74057 132.43274 L 178.79735 147.60081 A 2.6781303 2.8891376 0 0 0 178.56016 151.6786 A 2.6781303 2.8891376 0 0 0 182.34029 151.93439 L 195.74516 139.18168 L 195.74516 167.10246 A 2.6783981 2.8894265 0 0 0 200.1945 169.26925 L 218.41147 151.93439 A 2.6783981 2.8894265 0 0 0 218.41147 147.60081 L 202.46826 132.43274 L 218.41147 117.26468 A 2.6783981 2.8894265 0 0 0 218.41147 112.93109 L 200.1945 95.596231 A 2.6783981 2.8894265 0 0 0 198.31141 94.876378 z M 43.347224 97.851907 C 39.108978 97.851907 31.042549 102.68489 31.042549 111.25884 L 31.042549 133.84351 L 31.042549 136.19737 L 31.042549 158.78204 C 31.042549 167.35599 39.108978 172.18897 43.347224 172.18897 L 68.496593 172.18897 L 93.645962 172.18897 C 97.884208 172.18897 105.95064 167.35599 105.95064 158.78204 L 105.95064 146.36471 L 107.87352 146.36471 C 111.59649 146.36471 113.63234 143.72254 113.63234 141.93345 L 113.63234 136.19737 L 113.63234 133.84351 L 113.63234 128.10742 C 113.63234 126.31833 111.59649 123.67617 107.87352 123.67617 L 105.95064 123.67617 L 105.95064 111.25884 C 105.95064 102.68489 97.884208 97.851907 93.645962 97.851907 L 68.496593 97.851907 L 43.347224 97.851907 z M 201.10142 104.16573 L 212.59477 115.09788 L 201.10142 126.03003 L 201.10142 104.16573 z M 45.259252 106.26483 L 68.496593 106.26483 L 91.733934 106.26483 C 93.6854 106.26483 97.312405 108.80255 97.312405 111.25884 L 97.312405 133.84351 L 97.312405 136.19737 L 97.312405 158.78204 C 97.312405 161.23833 93.6854 163.77605 91.733934 163.77605 L 68.496593 163.77605 L 45.259252 163.77605 C 43.307786 163.77605 39.680782 161.23833 39.680782 158.78204 L 39.680782 136.19737 L 39.680782 133.84351 L 39.680782 111.25884 C 39.680782 108.80255 43.307786 106.26483 45.259252 106.26483 z M 135.52299 107.64304 C 133.37179 107.66399 130.39554 110.22026 132.08909 112.78846 C 137.11531 120.41054 140.03796 126.18936 140.03796 134.42849 C 140.03796 142.66762 137.11531 148.44643 132.08909 156.06851 C 130.39554 158.63671 133.37179 161.19303 135.52299 161.21393 C 136.01942 161.21876 136.47181 161.08846 136.81284 160.79225 C 144.84558 153.81491 147.35483 142.83617 147.35483 134.42849 C 147.35483 126.02081 144.84558 115.04206 136.81284 108.06472 C 136.47181 107.76851 136.01942 107.63821 135.52299 107.64304 z M 124.78566 118.21139 C 122.53564 118.29572 120.11581 121.40081 121.46597 123.41159 C 124.43209 127.82902 125.70654 130.15646 125.70654 134.42849 C 125.70654 138.70052 124.43209 141.02795 121.46597 145.44538 C 120.07226 147.52102 122.69563 150.76256 125.0027 150.64403 C 125.42994 150.62208 125.84633 150.48491 126.22434 150.20375 C 132.18589 145.76948 133.29367 138.08784 133.29367 134.42849 C 133.29367 130.76914 132.18589 123.08749 126.22434 118.65322 C 125.84633 118.37206 125.42994 118.23489 125.0027 118.21294 C 124.93061 118.20923 124.85824 118.20867 124.78566 118.21139 z M 60.518269 121.08098 C 57.805882 121.06608 55.162026 122.27491 52.952323 124.75207 C 49.624088 128.48315 50.024847 134.74008 52.952323 137.66756 L 66.711689 151.42693 C 67.008367 151.72361 67.470645 152.37933 68.496593 152.37933 C 69.522541 152.37933 69.984303 151.72361 70.280981 151.42693 L 84.040347 137.66756 C 86.967823 134.74008 87.368582 128.48315 84.040347 124.75207 C 79.62094 119.79775 73.465795 119.91659 68.496593 124.75207 C 66.011992 122.33433 63.230656 121.09583 60.518269 121.08098 z M 201.10142 138.83545 L 212.59477 149.7676 L 201.10142 160.69975 L 201.10142 138.83545 z M 45.332633 176.59025 L 47.527848 191.87149 C 47.953809 194.83697 51.470346 195.55634 52.952323 195.55034 L 68.496593 195.48677 L 84.040347 195.55034 C 85.522324 195.5564 89.039378 194.83697 89.465339 191.87149 L 91.660037 176.59025 L 68.496593 176.59025 L 45.332633 176.59025 z M 189.29335 197.54866 L 198.67314 197.54866 L 208.05293 197.54866 C 210.62505 197.54866 210.3616 202.13546 208.05293 202.13546 L 198.67314 202.13546 L 189.29335 202.13546 C 186.98468 202.13546 186.72123 197.54866 189.29335 197.54866 z " /></svg>
